<?xml version="1.0" encoding="UTF-8"?>
<svg xmlns="http://www.w3.org/2000/svg" xmlns:xlink="http://www.w3.org/1999/xlink" width="16px" height="16px" viewBox="0 0 16 16" version="1.1">
<g id="surface1">
<path style=" stroke:none;fill-rule:nonzero;fill:rgb(0%,0%,0%);fill-opacity:1;" d="M 2.707031 0.28125 C 2.507812 0.332031 2.226562 0.5 2.089844 0.648438 C 2.023438 0.722656 1.917969 0.878906 1.867188 0.992188 L 1.765625 1.203125 L 1.765625 14.800781 L 1.882812 15.039062 C 2.023438 15.320312 2.203125 15.496094 2.492188 15.632812 C 2.683594 15.726562 2.730469 15.734375 3 15.734375 C 3.269531 15.734375 3.316406 15.726562 3.507812 15.632812 C 3.621094 15.582031 3.777344 15.476562 3.855469 15.40625 C 4.03125 15.242188 4.207031 14.90625 4.234375 14.671875 L 4.257812 14.5 L 4.433594 14.5 C 4.703125 14.5 4.882812 14.425781 5.039062 14.25 C 5.195312 14.078125 5.25 13.929688 5.25 13.675781 L 5.25 13.5 L 6.101562 13.5 C 6.90625 13.5 6.960938 13.503906 7.011719 13.558594 C 7.042969 13.59375 7.105469 13.632812 7.15625 13.65625 L 7.242188 13.695312 L 7.257812 14.246094 L 7.265625 14.800781 L 7.382812 15.039062 C 7.523438 15.320312 7.703125 15.496094 7.992188 15.632812 L 8.203125 15.734375 L 12.796875 15.734375 L 13.007812 15.632812 C 13.296875 15.496094 13.476562 15.320312 13.617188 15.039062 L 13.734375 14.800781 L 13.742188 14.242188 C 13.757812 13.726562 13.757812 13.6875 13.820312 13.667969 C 13.929688 13.632812 14.101562 13.457031 14.175781 13.296875 C 14.242188 13.164062 14.25 13.09375 14.25 12.769531 C 14.25 12.566406 14.234375 12.34375 14.210938 12.273438 C 14.167969 12.125 13.976562 11.898438 13.84375 11.84375 L 13.75 11.804688 L 13.75 4.191406 L 13.816406 4.171875 C 13.929688 4.132812 14.101562 3.957031 14.175781 3.796875 C 14.242188 3.664062 14.25 3.59375 14.25 3.269531 C 14.25 3.066406 14.234375 2.84375 14.210938 2.773438 C 14.167969 2.628906 13.976562 2.398438 13.847656 2.347656 L 13.757812 2.304688 L 13.742188 1.757812 C 13.734375 1.210938 13.734375 1.199219 13.632812 0.992188 C 13.496094 0.703125 13.320312 0.523438 13.039062 0.382812 L 12.800781 0.265625 L 8.203125 0.265625 L 7.992188 0.367188 C 7.703125 0.503906 7.523438 0.679688 7.382812 0.960938 L 7.265625 1.199219 L 7.257812 1.753906 L 7.242188 2.304688 L 7.15625 2.34375 C 7.105469 2.367188 7.042969 2.40625 7.011719 2.441406 C 6.960938 2.496094 6.90625 2.5 6.101562 2.5 L 5.25 2.5 L 5.25 2.324219 C 5.25 2.070312 5.195312 1.921875 5.039062 1.75 C 4.882812 1.574219 4.703125 1.5 4.433594 1.5 L 4.257812 1.5 L 4.234375 1.328125 C 4.207031 1.09375 4.03125 0.757812 3.855469 0.59375 C 3.636719 0.394531 3.363281 0.277344 3.070312 0.261719 C 2.9375 0.257812 2.773438 0.265625 2.707031 0.28125 Z M 3.34375 0.855469 C 3.527344 0.945312 3.675781 1.140625 3.714844 1.351562 C 3.742188 1.46875 3.75 3.4375 3.742188 8.09375 L 3.734375 14.675781 L 3.652344 14.828125 C 3.378906 15.367188 2.621094 15.367188 2.347656 14.828125 L 2.265625 14.675781 L 2.257812 8.066406 C 2.246094 0.695312 2.230469 1.242188 2.460938 0.992188 C 2.6875 0.753906 3.035156 0.699219 3.34375 0.855469 Z M 12.828125 0.835938 C 12.976562 0.914062 13.09375 1.035156 13.175781 1.1875 C 13.222656 1.277344 13.234375 1.382812 13.242188 1.773438 L 13.257812 2.25 L 7.742188 2.25 L 7.757812 1.773438 C 7.765625 1.382812 7.777344 1.277344 7.824219 1.1875 C 7.929688 0.984375 8.097656 0.847656 8.3125 0.777344 C 8.355469 0.765625 9.363281 0.757812 10.546875 0.757812 C 12.691406 0.765625 12.703125 0.765625 12.828125 0.835938 Z M 4.601562 2.035156 C 4.648438 2.054688 4.695312 2.101562 4.714844 2.148438 C 4.765625 2.253906 4.765625 13.746094 4.714844 13.851562 C 4.671875 13.953125 4.5625 14 4.390625 14 L 4.25 14 L 4.25 2 L 4.390625 2 C 4.464844 2 4.5625 2.015625 4.601562 2.035156 Z M 6.75 3.25 L 6.75 3.5 L 5.25 3.5 L 5.25 3 L 6.75 3 Z M 7.011719 4.058594 C 7.042969 4.09375 7.109375 4.136719 7.160156 4.15625 L 7.25 4.195312 L 7.25 11.804688 L 7.160156 11.84375 C 7.109375 11.863281 7.042969 11.90625 7.011719 11.941406 C 6.960938 11.996094 6.90625 12 6.101562 12 L 5.25 12 L 5.25 4 L 6.101562 4 C 6.90625 4 6.960938 4.003906 7.011719 4.058594 Z M 9.875 4.257812 C 9.875 4.261719 9.398438 4.742188 8.8125 5.328125 L 7.75 6.390625 L 7.75 4.25 L 8.8125 4.25 C 9.398438 4.25 9.875 4.253906 9.875 4.257812 Z M 13.25 5.070312 L 13.25 5.890625 L 7.75 11.390625 L 7.75 9.609375 L 10.429688 6.929688 C 12.394531 4.960938 13.128906 4.25 13.179688 4.25 L 13.25 4.25 Z M 13.25 10.4375 L 13.25 11.75 L 10.609375 11.75 L 11.921875 10.4375 C 12.644531 9.714844 13.238281 9.125 13.242188 9.125 C 13.246094 9.125 13.25 9.714844 13.25 10.4375 Z M 6.75 12.75 L 6.75 13 L 5.25 13 L 5.25 12.5 L 6.75 12.5 Z M 13.242188 14.226562 C 13.234375 14.617188 13.222656 14.722656 13.175781 14.8125 C 13.09375 14.964844 12.976562 15.085938 12.828125 15.164062 C 12.703125 15.234375 12.695312 15.234375 10.5 15.234375 C 8.304688 15.234375 8.296875 15.234375 8.171875 15.164062 C 8.023438 15.085938 7.90625 14.964844 7.824219 14.8125 C 7.777344 14.722656 7.765625 14.617188 7.757812 14.226562 L 7.742188 13.75 L 13.257812 13.75 Z M 13.242188 14.226562 "/>
</g>
</svg>
